<svg id="Layer_1" data-name="Layer 1" xmlns="http://www.w3.org/2000/svg" xmlns:xlink="http://www.w3.org/1999/xlink" viewBox="0 0 200.00925 134.55093"><defs><style>.cls-1{fill:none;}.cls-2{fill:#111;}.cls-3{clip-path:url(#clip-path);}.cls-4{fill:#f58220;}.cls-5{fill:#e73530;}.cls-6{fill:url(#radial-gradient);}.cls-7{fill:#fff;}.cls-8{fill:#231f20;}</style><clipPath id="clip-path" transform="translate(-64.991 -188.44907)"><path class="cls-1" d="M264.73911,267.78353S210.68779,305.92059,111.69088,323H264.73911Z"/></clipPath><radialGradient id="radial-gradient" cx="163.33405" cy="-246.05674" r="14.52583" gradientTransform="translate(6.416 486.083)" gradientUnits="userSpaceOnUse"><stop offset="0.00562" stop-color="#ffeee0"/><stop offset="0.10959" stop-color="#fee9d7"/><stop offset="0.27927" stop-color="#fddbbf"/><stop offset="0.49353" stop-color="#fbc597"/><stop offset="0.744" stop-color="#f8a560"/><stop offset="1" stop-color="#f48120"/></radialGradient></defs><title>discover_d</title><path class="cls-2" d="M6.808,6.50015H193.19232a.30762.30762,0,0,1,.30762.30762V127.192a.30811.30811,0,0,1-.30811.30811H6.808a.30811.30811,0,0,1-.30811-.30811V6.80826A.30811.30811,0,0,1,6.808,6.50015Z"/><path class="cls-2" d="M251.991,201.44907v108h-174v-108h174m6.19206-13H71.79894A6.82793,6.82793,0,0,0,64.991,195.257V315.64111a6.828,6.828,0,0,0,6.80794,6.808H258.18306a6.828,6.828,0,0,0,6.80794-6.808V195.257a6.82793,6.82793,0,0,0-6.80794-6.80794Z" transform="translate(-64.991 -188.44907)"/><g class="cls-3"><path class="cls-4" d="M6.81732,7.05093H193.20111a.30811.30811,0,0,1,.30811.30811V127.74283a.30811.30811,0,0,1-.30811.30811H6.81683a.30762.30762,0,0,1-.30762-.30762V7.359A.30811.30811,0,0,1,6.81732,7.05093Z"/><path class="cls-4" d="M252.00025,202V310h-174V202h174m6.19206-13H71.80818a6.82793,6.82793,0,0,0-6.80794,6.80794V316.192A6.82794,6.82794,0,0,0,71.80818,323H258.1923a6.82794,6.82794,0,0,0,6.80794-6.808V195.80794A6.82793,6.82793,0,0,0,258.1923,189Z" transform="translate(-64.991 -188.44907)"/></g><path class="cls-5" d="M243.98279,299.11018" transform="translate(-64.991 -188.44907)"/><path class="cls-6" d="M169.77013,225.66592a14.44986,14.44986,0,0,0-14.70953,14.17387,14.69629,14.69629,0,1,0,14.70953-14.17387Z" transform="translate(-64.991 -188.44907)"/><path class="cls-7" d="M86.263,226.18278h-7.9081v27.58164h7.86666c4.17387,0,7.19257-.98913,9.84042-3.18218a13.86949,13.86949,0,0,0,5.00518-10.5951C101.06712,231.84405,94.98362,226.18278,86.263,226.18278ZM92.55169,246.898c-1.70023,1.5344-3.88911,2.197-7.36807,2.197H83.7382V230.85343h1.44543c3.479,0,5.58415.62089,7.36807,2.2322a9.2585,9.2585,0,0,1,2.97042,6.86215A9.43614,9.43614,0,0,1,92.55169,246.898Z" transform="translate(-64.991 -188.44907)"/><rect class="cls-7" x="38.55943" y="37.73371" width="5.37395" height="27.58164"/><path class="cls-7" d="M122.0821,236.763c-3.23046-1.19693-4.1807-1.98626-4.1807-3.46955,0-1.7383,1.69216-3.06063,4.01194-3.06063a5.59594,5.59594,0,0,1,4.34706,2.228l2.80823-3.67474a12.05249,12.05249,0,0,0-8.10811-3.06356c-4.87541,0-8.60045,3.39265-8.60045,7.89641,0,3.80825,1.73569,5.75024,6.78285,7.57485a20.72631,20.72631,0,0,1,3.72227,1.57189,3.29987,3.29987,0,0,1,1.6152,2.85026,3.93211,3.93211,0,0,1-4.18225,3.888,6.36414,6.36414,0,0,1-5.87174-3.6789l-3.46982,3.35372c2.47626,3.6341,5.4548,5.25245,9.55332,5.25245,5.58308,0,9.51027-3.72745,9.51027-9.0607C130.02016,240.98588,128.205,238.99935,122.0821,236.763Z" transform="translate(-64.991 -188.44907)"/><path class="cls-7" d="M131.7152,239.98714a14.28728,14.28728,0,0,0,14.56267,14.39946,14.84205,14.84205,0,0,0,6.74354-1.6113v-6.33071c-2.15369,2.15241-4.05654,3.0187-6.49787,3.0187-5.417,0-9.26594-3.9298-9.26594-9.51551a9.17052,9.17052,0,0,1,9.02027-9.46963c2.56027,0,4.50744.90982,6.74354,3.10159V227.249a13.74753,13.74753,0,0,0-6.6207-1.68847A14.50274,14.50274,0,0,0,131.7152,239.98714Z" transform="translate(-64.991 -188.44907)"/><polygon class="cls-7" points="131.621 56.261 124.259 37.734 118.385 37.734 130.094 66.02 132.987 66.02 144.901 37.734 139.071 37.734 131.621 56.261"/><polygon class="cls-7" points="147.346 65.315 162.606 65.315 162.606 60.646 152.723 60.646 152.723 53.197 162.228 53.197 162.228 48.526 152.723 48.526 152.723 42.404 162.606 42.404 162.606 37.734 147.346 37.734 147.346 65.315"/><path class="cls-7" d="M248.893,234.32293c0-5.16711-3.55169-8.14015-9.75957-8.14015h-7.98372v27.58164h5.38228v-11.0851h.704l7.44134,11.0851h6.61782l-8.69092-11.61836C246.66338,241.31657,248.893,238.54428,248.893,234.32293Zm-10.79585,4.55492h-1.56516v-8.35772h1.6512c3.35766,0,5.17677,1.41028,5.17677,4.09435C243.35992,237.38388,241.54082,238.87785,238.09711,238.87785Z" transform="translate(-64.991 -188.44907)"/><path class="cls-8" d="M252.68771,228.23687c0-.48321-.32337-.74533-.91479-.74533h-.78282v2.42937h.57523v-.9448l.68007.9448h.72076l-.80733-1.004A.667.667,0,0,0,252.68771,228.23687Zm-1.01439.33063h-.108v-.63184h.11317c.28631,0,.43184.104.43184.31055C252.11034,228.45952,251.95909,228.5675,251.67332,228.5675Z" transform="translate(-64.991 -188.44907)"/><path class="cls-8" d="M251.8887,226.577a2.12287,2.12287,0,1,0,2.095,2.12245A2.11566,2.11566,0,0,0,251.8887,226.577Zm-.00262,3.86492a1.74035,1.74035,0,1,1,1.67048-1.73675A1.716,1.716,0,0,1,251.88609,230.44194Z" transform="translate(-64.991 -188.44907)"/></svg>