<svg id="Layer_1" data-name="Layer 1" xmlns="http://www.w3.org/2000/svg" viewBox="0 0 200 134"><defs><style>.cls-1{fill:#2e78bf;}.cls-2{fill:#fff;}</style></defs><title>amex_d</title><rect class="cls-1" x="6.5" y="6.5" width="187" height="121" rx="0.31" ry="0.31"/><path class="cls-1" d="M313.91,173.7v108h-174v-108h174m6.19-13H133.72a6.83,6.83,0,0,0-6.81,6.81V287.89a6.83,6.83,0,0,0,6.81,6.81H320.1a6.83,6.83,0,0,0,6.81-6.81V167.51a6.83,6.83,0,0,0-6.81-6.81Z" transform="translate(-126.91 -160.7)"/><path class="cls-2" d="M126.91,224.86h9.61l2.17-5.25h4.85l2.15,5.25h18.9v-4l1.69,4h9.8l1.68-4.06v4h47l0-8.58h.91c.64,0,.83.09.83,1.13v7.44h24.28v-2a19.19,19.19,0,0,0,9,2H270l2.19-5.25H277l2.14,5.25h19.69v-5l3,5h15.77V192H302v3.89L299.79,192h-16v3.89l-2-3.89H260.11a19.41,19.41,0,0,0-9.39,1.92V192H235.8V194c-1.65-1.46-3.88-1.92-6.36-1.92H174.88l-3.68,8.48L167.46,192H150.27v3.89l-1.9-3.89H133.72l-6.81,15.58Zm185.67-4.64h-8L294,202.59v17.63H282.52L280.33,215h-11.7l-2.1,5.25H260c-2.74,0-6.2-.61-8.15-2.59s-3-4.7-3-9c0-3.49.62-6.67,3-9.18,1.82-1.88,4.66-2.75,8.54-2.75h5.43v5h-5.31c-2.05,0-3.23.32-4.35,1.4a7.86,7.86,0,0,0-1.6,5.33c0,2.52.49,4.32,1.56,5.52a5.39,5.39,0,0,0,3.91,1.21h2.53l7.92-18.5h8.42L288.38,219V196.71H297l9.88,16.38V196.71h5.75Zm-66.53,0h-5.73V196.71H246Zm-9-17.16a6.64,6.64,0,0,1-4,6.26,6.31,6.31,0,0,1,2.76,2c.79,1.14.95,2.22.95,4.29v4.62h-5.67l0-3c0-1.39.14-3.44-.9-4.56-.82-.84-2.06-1-4.09-1h-6v8.53h-5.61V196.71H227.4c2.86,0,5,.1,6.8,1.14A5.47,5.47,0,0,1,237,203.06Zm-26.48,17.16H191.79V196.71h18.78v4.92H197.42v4.22h12.82v4.83l-12.82,0v4.7h13.15Zm-23,0h-5.76l0-18.39-8.15,18.39h-4.93l-8.19-18.43v18.43H149.12L147,215H135.26l-2.17,5.25H127l10-23.52h8.36L154.95,219V196.71h9.19l7.35,16,6.76-16h9.36Zm90.8-10.14-3.9-9.36-3.85,9.36Zm-48.71-3.71a5.54,5.54,0,0,1-2.78.48h-6.83v-5.22H227a6,6,0,0,1,2.68.4,2.19,2.19,0,0,1,1.17,2.08A2.49,2.49,0,0,1,229.69,206.37Zm-84.75,3.71-3.85-9.36-3.83,9.36Z" transform="translate(-126.91 -160.7)"/><path class="cls-2" d="M235.86,244.95c0,6.52-4.86,7.88-9.79,7.88h-7v7.89H208.15l-6.93-7.78L194,260.72H171.77V237.19h22.61l6.91,7.7,7.15-7.7h18C230.85,237.19,235.86,238.43,235.86,244.95Zm-44.68,10.86H177.35v-4.68H189.7v-4.8H177.35v-4.27h14.09l6.15,6.84Zm22.28,2.77L204.84,249l8.62-9.27ZM226.34,248h-7.28v-6h7.33c2,0,3.44.82,3.44,2.88S228.49,248,226.34,248Zm37.91-10.85H283v4.88H269.85v4.27H282.7v4.8H269.85v4.68l13.17,0v4.89H264.25Zm-7.11,12.59a6,6,0,0,1,2.75,2c.79,1.15.92,2.22.94,4.3v4.66H255.2v-2.95c0-1.41.13-3.5-.91-4.59-.82-.86-2.07-1.06-4.11-1.06h-6v8.6h-5.64V237.19h13c2.86,0,4.93.12,6.77,1.12a5.5,5.5,0,0,1,2.88,5.22A6.57,6.57,0,0,1,257.14,249.78Zm-3.4-2.92a5.44,5.44,0,0,1-2.76.48h-6.83v-5.28h6.93a5.61,5.61,0,0,1,2.67.41,2.25,2.25,0,0,1,1.16,2.12A2.56,2.56,0,0,1,253.75,246.86Zm50.72,1.44c1.11,1.14,1.69,2.58,1.69,5,0,5.07-3.17,7.43-8.83,7.43h-11v-5h10.92a3.27,3.27,0,0,0,2.3-.59,2,2,0,0,0,.66-1.52,2,2,0,0,0-.7-1.56,2.91,2.91,0,0,0-2-.53c-5.26-.17-11.84.16-11.84-7.28,0-3.41,2.14-7,8-7H305v5H294.72a3.86,3.86,0,0,0-2.26.42,2,2,0,0,0,.39,3.45,6.62,6.62,0,0,0,2.18.27l3,.08C301.12,246.5,303.2,247,304.47,248.3Zm22.44,9.4c-1.38,2-4,3-7.64,3H308.41v-5h10.82a3.19,3.19,0,0,0,2.27-.59,2,2,0,0,0,.67-1.52,2,2,0,0,0-.69-1.56,2.89,2.89,0,0,0-2-.53c-5.28-.17-11.86.16-11.86-7.28,0-3.41,2.17-7,8.05-7h11.21v-4.68H316.5a11.7,11.7,0,0,0-7,1.93v-1.93H294.07c-2.45,0-5.33.62-6.71,1.93v-1.93H259.87v1.93c-2.19-1.57-5.87-1.93-7.58-1.93H234.18v1.93c-1.74-1.68-5.57-1.93-7.92-1.93H206l-4.64,5-4.34-5H166.67v32.83h29.74l4.78-5.1,4.51,5.1H224v-7.73h1.82a19.24,19.24,0,0,0,7.82-1.14v8.86h15.12v-8.56h.73c.94,0,1,.05,1,1v7.6h45.92c2.91,0,6-.75,7.64-2.1v2.1h14.57a19.56,19.56,0,0,0,8.25-1.51Zm0-15.51H316.65a3.87,3.87,0,0,0-2.26.42,1.86,1.86,0,0,0-.83,1.7,1.78,1.78,0,0,0,1.24,1.75,6.55,6.55,0,0,0,2.17.27l3,.08c3.07.09,5.13.61,6.39,1.88a5.24,5.24,0,0,1,.52.6Z" transform="translate(-126.91 -160.7)"/></svg>