<svg id="Layer_1" data-name="Layer 1" xmlns="http://www.w3.org/2000/svg" viewBox="0 0 200 134"><defs><style>.cls-1{fill:#85bb65;}.cls-2{opacity:0.73;}.cls-3{fill:#77a856;}.cls-4{fill:#fff;}</style></defs><title>cash_l</title><path class="cls-1" d="M6.80792,6.5H193.1922a.30811.30811,0,0,1,.30811.30811v120.3833a.30859.30859,0,0,1-.30859.30859H6.80743a.30762.30762,0,0,1-.30762-.30762V6.80811A.30811.30811,0,0,1,6.80792,6.5Z"/><path class="cls-1" d="M246.66669,66V174h-174V66h174m6.192-13H66.47463A6.82793,6.82793,0,0,0,59.66669,59.808V180.192A6.828,6.828,0,0,0,66.47463,187H252.85869a6.828,6.828,0,0,0,6.808-6.808V59.808A6.828,6.828,0,0,0,252.85869,53Z" transform="translate(-59.66669 -53)"/><g class="cls-2"><path class="cls-3" d="M103.34961,169.624H101.918a73.70636,73.70636,0,0,1-16.49414-1.60156,26.71172,26.71172,0,0,1-11.31348-5.31641,21.543,21.543,0,0,1-6.50879-9.78027,46.6717,46.6717,0,0,1-2.0791-14.99414v-.9541H79.49512v1.09033a33.34423,33.34423,0,0,0,1.32812,10.32568,13.06189,13.06189,0,0,0,4.19238,6.27051,16.28281,16.28281,0,0,0,7.39454,3.10108,62.70493,62.70493,0,0,0,10.93945.81787V123.00537L93.876,121.77881a69.42357,69.42357,0,0,1-12.47266-2.624,22.11258,22.11258,0,0,1-8.28125-4.60059,16.5994,16.5994,0,0,1-4.56641-7.395A37.55734,37.55734,0,0,1,67.1582,96.084q0-14.24413,8.86035-20.75341,8.85938-6.50757,26.78516-6.50879h.5459V53.75928h7.22363v15.0625a73.076,73.076,0,0,1,16.49414,1.73779,27.56354,27.56354,0,0,1,11.2461,5.28223,21.03147,21.03147,0,0,1,6.40625,9.3374,41.31369,41.31369,0,0,1,2.04492,13.83545v2.04492H133.33789V99.96875a31.998,31.998,0,0,0-1.3291-9.57568,12.778,12.778,0,0,0-4.02149-6.03174,17.04111,17.04111,0,0,0-7.05371-3.23731,52.18524,52.18524,0,0,0-10.36035-1.12451v31.69238l10.08789,1.09034a66.18126,66.18126,0,0,1,12.6084,2.48779,23.03887,23.03887,0,0,1,8.65527,4.771,18.27425,18.27425,0,0,1,5.00977,7.90576,37.778,37.778,0,0,1,1.60156,11.82519,37.84858,37.84858,0,0,1-2.35156,14.3125,21.389,21.389,0,0,1-6.98535,9.20117,28.685,28.685,0,0,1-11.58692,4.90723A80.81649,80.81649,0,0,1,111.46,169.624h-.88672v16.76612h-7.22363ZM81.2666,95.33447a23.25124,23.25124,0,0,0,.78418,6.61084,9.00794,9.00794,0,0,0,2.55567,4.1919,11.50473,11.50473,0,0,0,4.63476,2.41943,44.40991,44.40991,0,0,0,7.08789,1.29492l7.02051.88574V79.99951a64.92621,64.92621,0,0,0-9.81445.88574,19.00673,19.00673,0,0,0-6.88379,2.4878A10.63551,10.63551,0,0,0,82.5957,88.0415,17.66376,17.66376,0,0,0,81.2666,95.33447ZM110.57324,123.96V158.583a67.13739,67.13739,0,0,0,10.25781-.81787,19.50962,19.50962,0,0,0,7.49707-2.72657,12.49259,12.49259,0,0,0,4.60059-5.41845,21.59,21.59,0,0,0,1.56738-8.894,30.8426,30.8426,0,0,0-.68164-7.02,9.18741,9.18741,0,0,0-2.58984-4.66894,12.80042,12.80042,0,0,0-5.21387-2.794,48.1669,48.1669,0,0,0-8.55371-1.53369Z" transform="translate(-59.66669 -53)"/></g><path class="cls-4" d="M130.39844,126.3418l.07031.14062q.04688,5.625-2.67187,8.48438t-8.01563,2.85937a11.27468,11.27468,0,0,1-8.46094-3.24609q-3.16406-3.24609-3.16406-9.19922v-10.1958q0-5.92969,3.05859-9.19922a10.681,10.681,0,0,1,8.19141-3.26953q5.4375,0,8.21484,2.90625t2.8711,8.60156l-.07031.14063H124q.14063-3.364-.91406-4.8462a4.21142,4.21142,0,0,0-3.67969-1.48193,3.91153,3.91153,0,0,0-3.44531,1.75977,9.55678,9.55678,0,0,0-1.19532,5.32519v10.25147a9.16969,9.16969,0,0,0,1.27735,5.373,4.32925,4.32925,0,0,0,3.73828,1.75977,3.77563,3.77563,0,0,0,3.36328-1.39453q.94921-1.39454.832-4.76953Z" transform="translate(-59.66669 -53)"/><path class="cls-4" d="M149.85156,130.04492h-9l-1.82812,7.28906h-6.72656l9.60937-34.12548h6.9375l9.58594,34.12548h-6.72657Zm-7.64062-5.32031h6.28125l-3.07031-12.0708h-.14063Z" transform="translate(-59.66669 -53)"/><path class="cls-4" d="M176.24219,128.42773a4.574,4.574,0,0,0-1.03125-3.15234,10.50162,10.50162,0,0,0-3.63282-2.28516,24.0156,24.0156,0,0,1-7.98046-4.20752,8.3514,8.3514,0,0,1-2.66016-6.59765,8.55747,8.55747,0,0,1,3.09375-6.832,11.75014,11.75014,0,0,1,7.89844-2.63672,10.92842,10.92842,0,0,1,7.92187,2.9414,9.57752,9.57752,0,0,1,2.95313,7.418l-.04688.14063h-6.46875a5.862,5.862,0,0,0-1.17187-3.79688,4.53792,4.53792,0,0,0-6.41016-.24609,4.30422,4.30422,0,0,0-1.11328,3.03516,3.531,3.531,0,0,0,1.24219,2.77734,17.50636,17.50636,0,0,0,4.3125,2.42578,18.14559,18.14559,0,0,1,7.30078,4.16065,9.35079,9.35079,0,0,1,2.44922,6.80859,8.61343,8.61343,0,0,1-2.95313,6.9375,11.72159,11.72159,0,0,1-7.85156,2.50781,13.15019,13.15019,0,0,1-8.44922-2.84765q-3.57422-2.84766-3.457-8.168l.04688-.14063h6.49218q0,3.16407,1.33594,4.54688a5.36488,5.36488,0,0,0,4.03125,1.38281,4.01793,4.01793,0,0,0,3.12891-1.125A4.36642,4.36642,0,0,0,176.24219,128.42773Z" transform="translate(-59.66669 -53)"/><path class="cls-4" d="M211,137.334h-6.65625V123.20117H193.75V137.334h-6.67969V103.2085H193.75v14.67187h10.59375V103.2085H211Z" transform="translate(-59.66669 -53)"/></svg>