<svg version="1.1" id="1837675736" xmlns="http://www.w3.org/2000/svg" xmlns:xlink="http://www.w3.org/1999/xlink" x="0px"
	y="0px" width="80px" height="80px" viewBox="0 0 80 80" enable-background="new 0 0 80 80" xml:space="preserve"
	class="svg u_1837675736" data-icon-custom="true" data-icon-name="i2.svg">
	<g fill="#0011a7" display="none" id="1921120329">
		<path display="inline" fill="none" d="M51.218,30.337c1.351,0,2.444-1.094,2.444-2.444c0-0.347-0.074-0.676-0.204-0.975h2.972
		c-0.13,0.299-0.205,0.628-0.205,0.975c0,1.351,1.094,2.444,2.444,2.444s2.444-1.094,2.444-2.444c0-1.35-1.094-2.444-2.444-2.444
		c-0.694,0-1.317,0.293-1.762,0.758H52.98c-0.444-0.465-1.067-0.758-1.763-0.758c-1.35,0-2.443,1.095-2.443,2.444
		C48.774,29.243,49.868,30.337,51.218,30.337z" id="1586593055"></path>
		<path display="inline" d="M11.063,61.308c-0.415-0.345-0.891-0.564-1.418-0.674c-0.067-0.015-0.121-0.007-0.18,0.036
		c-0.286,0.212-0.604,0.354-0.948,0.438c-0.342,0.085-0.692,0.099-1.041,0.073c-0.212-0.016-0.425-0.055-0.631-0.105
		c-0.319-0.078-0.607-0.229-0.874-0.423c-0.024-0.019-0.066-0.027-0.097-0.023c-0.41,0.068-0.791,0.219-1.142,0.441
		c-0.374,0.233-0.687,0.534-0.935,0.897c-0.31,0.454-0.494,0.955-0.546,1.505c-0.008,0.081-0.011,0.165-0.017,0.251
		c0.349-0.032,0.668,0.037,0.953,0.188l7.074,0.008c0.309-0.162,0.625-0.227,0.968-0.196c0-0.031,0.001-0.061,0-0.089
		c-0.02-0.348-0.087-0.687-0.214-1.011C11.81,62.102,11.492,61.664,11.063,61.308z" id="1550200330"></path>
		<path display="inline" d="M22.857,61.308c-0.415-0.345-0.891-0.564-1.418-0.674c-0.067-0.015-0.121-0.007-0.18,0.036
		c-0.286,0.212-0.604,0.354-0.948,0.438c-0.342,0.085-0.692,0.099-1.041,0.073c-0.212-0.016-0.425-0.055-0.631-0.105
		c-0.319-0.078-0.607-0.229-0.874-0.423c-0.024-0.019-0.066-0.027-0.097-0.023c-0.41,0.068-0.791,0.219-1.142,0.441
		c-0.374,0.233-0.687,0.534-0.935,0.897c-0.31,0.454-0.494,0.955-0.546,1.505c-0.008,0.081-0.011,0.165-0.017,0.251
		c0.349-0.032,0.668,0.037,0.953,0.188l7.074,0.008c0.309-0.162,0.625-0.227,0.968-0.196c0-0.031,0.001-0.061,0-0.089
		c-0.02-0.348-0.087-0.687-0.214-1.011C23.604,62.102,23.286,61.664,22.857,61.308z" id="1483297489"></path>
		<path display="inline" d="M34.601,61.308c-0.415-0.345-0.891-0.564-1.418-0.674c-0.067-0.015-0.122-0.007-0.18,0.036
		c-0.286,0.212-0.606,0.354-0.949,0.438c-0.342,0.085-0.691,0.099-1.04,0.073c-0.212-0.016-0.425-0.055-0.632-0.105
		c-0.319-0.078-0.607-0.229-0.874-0.423c-0.024-0.019-0.066-0.027-0.097-0.023c-0.41,0.068-0.791,0.219-1.142,0.441
		c-0.374,0.233-0.687,0.534-0.935,0.897c-0.31,0.454-0.494,0.955-0.546,1.505c-0.008,0.081-0.011,0.165-0.017,0.251
		c0.349-0.032,0.667,0.037,0.953,0.188l7.074,0.008c0.308-0.162,0.625-0.227,0.967-0.196c0-0.031,0.001-0.061,0-0.089
		c-0.02-0.348-0.087-0.687-0.214-1.011C35.347,62.102,35.029,61.664,34.601,61.308z" id="1032255780"></path>
		<circle display="inline" cx="7.731" cy="32.351" r="4.575" id="1282903828"></circle>
		<circle display="inline" cx="7.731" cy="44.066" r="4.575" id="1936437530"></circle>
		<circle display="inline" cx="7.731" cy="55.781" r="4.575" id="1996118360"></circle>
		<circle display="inline" cx="31.268" cy="32.351" r="4.575" id="1112181935"></circle>
		<circle display="inline" cx="31.268" cy="44.066" r="4.575" id="1052975872"></circle>
		<circle display="inline" cx="31.268" cy="55.781" r="4.575" id="1121855107"></circle>
		<circle display="inline" cx="19.525" cy="32.351" r="4.575" id="1506181807"></circle>
		<circle display="inline" cx="19.525" cy="44.066" r="4.575" id="1006580359"></circle>
		<circle display="inline" cx="19.525" cy="55.781" r="4.575" id="1969408000"></circle>
		<circle display="inline" cx="7.731" cy="20.622" r="4.575" id="1541394363"></circle>
		<circle display="inline" cx="31.268" cy="20.622" r="4.575" id="1709882844"></circle>
		<circle display="inline" cx="19.525" cy="20.622" r="4.575" id="1670398227"></circle>
		<path display="inline" d="M59.788,49.687c0.902-0.085,1.805-0.169,2.706-0.256c0.954-0.093,1.91-0.189,2.864-0.286L66.798,49
		l0.095-0.007h0.05h0.001c0.885,0,1.634,0.729,1.67,1.628c0.022,0.53,0.021,1.017,0.012,1.49h0.097
		c0.388-0.202,0.782-0.352,1.18-0.477c0.095-2.436,0.191-4.87,0.291-7.306c-0.632-0.888-1.376-1.692-2.239-2.409
		c-1.62-1.346-3.478-2.205-5.54-2.631c-0.261-0.055-0.473-0.029-0.703,0.141c-1.113,0.822-2.358,1.378-3.701,1.71
		c-1.334,0.33-2.7,0.384-4.062,0.282c-0.827-0.062-1.658-0.212-2.466-0.411c-1.245-0.308-2.372-0.894-3.411-1.651
		c-0.097-0.071-0.258-0.109-0.377-0.089c-1.604,0.266-3.087,0.855-4.461,1.719c-1.461,0.916-2.68,2.089-3.65,3.507
		c-1.211,1.771-1.928,3.73-2.132,5.872c-0.028,0.295-0.041,0.592-0.061,0.896c0.383-0.09,0.729-0.092,0.903-0.092h0.004
		c1.178,0,2.257,0.34,3.167,0.911l0.707,0.001c-0.002-0.261-0.006-0.521-0.004-0.782l0.001-0.454
		c0.003-0.881,0.471-1.337,0.742-1.527c0.171-0.119,0.524-0.321,0.973-0.321L43.962,49l0.051,0.004
		c1.817,0.172,3.632,0.353,5.446,0.533c0.636,0.063,1.272,0.127,1.908,0.192c0.641,0.064,1.282,0.131,1.932,0.194
		c0.069,0.008,0.139,0.01,0.209,0.014c0.126,0.007,0.253,0.014,0.38,0.029c0.731,0.091,1.23,0.459,1.498,1.016
		c0.147-0.331,0.376-0.598,0.705-0.779c0.362-0.2,0.736-0.236,0.984-0.26C57.979,49.856,58.884,49.771,59.788,49.687z"
			id="1480876149"></path>
		<path display="inline" d="M50.29,37.575c1.42,1.012,2.996,1.579,4.755,1.555c1.479-0.019,2.842-0.457,4.083-1.249
		c2.277-1.451,3.771-3.521,4.642-6.05c0.6-1.746,0.76-3.538,0.367-5.354c-0.418-1.926-1.345-3.575-2.803-4.912
		c-2.183-2.003-4.765-2.795-7.686-2.432c-1.745,0.217-3.307,0.915-4.663,2.047c-2.271,1.897-3.39,4.343-3.45,7.019
		c0.02,1.739,0.329,3.144,0.907,4.495C47.287,34.668,48.535,36.323,50.29,37.575z M51.218,25.448c0.695,0,1.318,0.293,1.763,0.758
		h3.927c0.444-0.465,1.067-0.758,1.762-0.758c1.351,0,2.444,1.095,2.444,2.444c0,1.351-1.094,2.444-2.444,2.444
		s-2.444-1.094-2.444-2.444c0-0.347,0.075-0.676,0.205-0.975h-2.972c0.13,0.299,0.204,0.628,0.204,0.975
		c0,1.351-1.094,2.444-2.444,2.444c-1.35,0-2.443-1.094-2.443-2.444C48.774,26.543,49.868,25.448,51.218,25.448z"
			id="1255564108"></path>
		<path display="inline" d="M74.535,53.086c-0.355-0.21-0.386-0.423-0.356-0.768c0.164-1.847,0.312-3.694,0.462-5.541
		c0.144-1.808,0.278-3.615,0.422-5.422c0.128-1.591,0.267-3.182,0.396-4.773c0.131-1.6,0.257-3.2,0.385-4.8
		c0.131-1.616,0.264-3.233,0.395-4.849c0.03-0.373-0.053-0.72-0.239-1.05c-0.285-0.504-0.838-0.835-1.42-0.858
		c-0.085-0.004-0.17,0-0.254,0.01c-0.714,0.084-1.351,0.582-1.479,1.248c-0.109,0.565-0.146,1.147-0.193,1.723
		c-0.171,2.096-0.33,4.19-0.499,6.285c-0.247,3.051-0.501,6.102-0.748,9.153c-0.241,2.986-0.478,5.971-0.712,8.957
		c-0.012,0.142-0.075,0.19-0.194,0.24c-0.351,0.15-0.716,0.282-1.03,0.486c-1.948,1.271-2.697,3.651-1.845,5.804
		c0.711,1.797,2.412,2.919,4.234,2.991c0.639,0.025,1.293-0.078,1.925-0.329c1.294-0.496,2.197-1.406,2.713-2.677
		C77.374,56.75,76.545,54.271,74.535,53.086z" id="1315120165"></path>
		<path display="inline"
			d="M53.757,51.031c-0.188-0.022-0.381-0.021-0.57-0.041c-1.278-0.125-2.555-0.26-3.832-0.385
		c-1.814-0.182-3.627-0.361-5.442-0.532c-0.01-0.001-0.019-0.001-0.029-0.001c-0.118,0-0.255,0.056-0.354,0.125
		c-0.22,0.153-0.288,0.395-0.289,0.655c0,0.555-0.01,1.111,0.007,1.667c0.004,0.134,0.06,0.291,0.142,0.397
		c1.269,1.633,1.726,3.454,1.304,5.485c-0.206,0.989-0.64,1.872-1.266,2.666c-0.079,0.098-0.168,0.22-0.177,0.337
		c-0.024,0.306-0.021,0.615-0.001,0.921c0.026,0.427,0.281,0.656,0.706,0.678c0.248,0.013,0.495,0.038,0.743,0.063
		c1.285,0.127,2.57,0.257,3.855,0.384c0.816,0.082,1.635,0.158,2.451,0.237c0.932,0.088,1.862,0.181,2.795,0.262
		c0.031,0.002,0.061,0.004,0.09,0.004c0.325,0,0.513-0.163,0.599-0.5c0.035-0.143,0.049-0.295,0.049-0.442
		c0.004-1.834,0.002-3.666,0.002-5.501c0-0.738,0-1.477,0-2.214c0-1.12,0-2.241,0-3.36C54.538,51.358,54.318,51.101,53.757,51.031z"
			id="1153734616"></path>
		<path display="inline" d="M67.227,53.17c0.117-0.156,0.301-0.324,0.31-0.492c0.036-0.67,0.033-1.343,0.006-2.014
		c-0.014-0.338-0.314-0.599-0.599-0.599c-0.015,0-0.028,0.001-0.043,0.002c-1.435,0.144-2.868,0.292-4.303,0.431
		c-1.806,0.174-3.613,0.339-5.419,0.513c-0.194,0.019-0.405,0.041-0.57,0.132c-0.292,0.162-0.337,0.468-0.336,0.779
		c0.002,1.857,0,3.716,0,5.573c-0.001,0-0.001,0-0.003,0c0,1.818-0.002,3.635,0.002,5.451c0,0.15,0.001,0.301,0.024,0.447
		c0.057,0.347,0.297,0.559,0.632,0.559c0.019,0,0.039-0.001,0.059-0.002c0.488-0.036,0.974-0.083,1.461-0.129
		c0.939-0.09,1.88-0.181,2.82-0.271c0.923-0.089,1.847-0.178,2.771-0.269c0.939-0.091,1.878-0.192,2.816-0.275
		c0.403-0.035,0.663-0.257,0.696-0.664c0.021-0.238-0.002-0.481,0.018-0.722c0.016-0.221-0.056-0.389-0.195-0.562
		C65.533,58.781,65.477,55.496,67.227,53.17z" id="1146766988"></path>
		<path display="inline" d="M38.427,52.448c-0.001,0-0.003,0-0.004,0c-2.613,0.003-0.907,2.146-0.908,4.776
		c0,2.629-3.153,3.335,1.048,4.353c4.315-0.059,4.701-1.77,4.667-4.353C43.227,54.55,41.11,52.448,38.427,52.448z"
			id="1149605519"></path>
	</g>
	<g fill="#0011a7" id="1340353105">
		<path fill-rule="evenodd" clip-rule="evenodd"
			d="M57.383,64.937c-2.015-0.186-3.851,0.34-5.335,1.683
		c-0.865,0.783-1.514,1.818-2.206,2.781c-0.983,1.367-2.304,1.919-3.926,1.628c-0.625-0.112-1.199-0.499-1.802-0.743
		c-0.983-0.395-1.944-0.883-2.962-1.139c-1.486-0.371-2.923-0.042-4.302,0.628c-0.994,0.483-1.996,1.048-3.059,1.27
		c-1.409,0.294-2.613-0.326-3.484-1.496c-0.377-0.505-0.719-1.035-1.08-1.555c-1.408-2.021-3.357-3.016-5.807-3.054
		c-0.607-0.01-1.215,0.006-1.823-0.003c-1.999-0.024-3.538-1.448-3.742-3.452c-0.198-1.941-0.461-3.84-1.823-5.415
		c-0.994-1.151-2.322-1.731-3.602-2.409c-1.153-0.61-1.912-1.541-2.059-2.822c-0.08-0.69,0.083-1.436,0.254-2.126
		c0.285-1.146,0.803-2.248,0.97-3.404c0.239-1.656-0.222-3.206-1.187-4.613c-0.597-0.872-1.218-1.776-1.566-2.758
		c-0.466-1.314,0.001-2.532,0.962-3.529c0.371-0.384,0.777-0.736,1.189-1.076c2.252-1.854,3.05-4.226,2.58-7.076
		c-0.103-0.62-0.205-1.26-0.16-1.879c0.122-1.668,1.267-2.972,2.919-3.421c0.607-0.165,1.225-0.295,1.834-0.454
		c2.273-0.591,3.834-1.997,4.718-4.161c0.248-0.606,0.457-1.227,0.699-1.834c0.701-1.758,2.414-2.708,4.27-2.351
		c0.927,0.179,1.835,0.47,2.768,0.598c2.056,0.283,3.887-0.277,5.455-1.654c0.438-0.385,0.871-0.775,1.311-1.158
		c1.625-1.417,3.664-1.408,5.275,0.018c0.618,0.547,1.199,1.152,1.877,1.617c1.82,1.249,3.816,1.555,5.964,0.979
		c1.043-0.278,2.077-0.696,3.207-0.399c1.227,0.322,2.143,1.004,2.649,2.179c0.26,0.6,0.474,1.22,0.71,1.83
		c0.885,2.289,2.498,3.762,4.89,4.365c0.658,0.165,1.32,0.314,1.97,0.511c1.796,0.546,2.839,2.218,2.661,4.09
		c-0.141,1.461-0.522,2.919-0.063,4.404c0.402,1.303,0.986,2.472,2.04,3.374c0.498,0.426,0.985,0.866,1.47,1.309
		c1.456,1.333,1.719,3.296,0.653,4.949c-0.354,0.552-0.736,1.085-1.104,1.627c-1.353,1.996-1.565,4.125-0.745,6.374
		c0.217,0.592,0.437,1.183,0.648,1.775c0.642,1.794-0.065,3.686-1.73,4.619c-0.466,0.261-0.939,0.508-1.417,0.745
		c-2.514,1.241-3.788,3.3-4.024,6.055c-0.045,0.508-0.09,1.018-0.181,1.518c-0.314,1.739-1.882,3.04-3.66,3.057
		C58.111,64.94,57.747,64.937,57.383,64.937z M40.053,15.149c-13.882,0.072-24.974,11.202-24.897,24.983
		c0.076,13.727,11.339,24.868,25,24.731c13.697-0.139,24.758-11.234,24.717-24.799C64.831,26.274,53.68,15.079,40.053,15.149z" id="1796775058"></path>
		<path fill-rule="evenodd" clip-rule="evenodd"
			d="M18.229,40.001c-0.131-11.839,9.603-21.641,21.625-21.779
		c12-0.137,21.839,9.584,21.944,21.68c0.104,12.034-9.662,21.834-21.811,21.889C28.031,61.846,18.363,52.165,18.229,40.001z
		 M36.93,45.176c-0.283-0.375-0.409-0.588-0.577-0.757c-2.159-2.168-4.327-4.327-6.485-6.495c-0.857-0.86-1.875-1.212-3.052-0.905
		c-2.414,0.63-3.118,3.478-1.308,5.302c2.993,3.017,6.003,6.015,9.012,9.017c1.48,1.477,3.272,1.478,4.75,0.008
		c1.858-1.851,3.71-3.708,5.564-5.563c3.229-3.228,6.458-6.452,9.683-9.685c1.146-1.15,1.352-2.73,0.539-3.978
		c-1.143-1.757-3.376-1.935-4.941-0.373c-4.212,4.201-8.418,8.409-12.619,12.621C37.309,44.557,37.185,44.808,36.93,45.176z" id="1503016624"></path>
	</g>
	<g fill="#0011a7" display="none" id="1360160246">
		<path display="inline" fill="none" d="M40.85,19.018c-0.472-0.059-1.028,0.545-1.953,1.103c0.862,0.621,1.37,1.271,1.844,1.247
		c0.475-0.022,0.917-0.718,1.375-1.12C41.696,19.811,41.317,19.079,40.85,19.018z" id="1879394675"></path>
		<path display="inline" d="M53.128,64.825c-0.324,0.736-0.591,1.498-0.941,2.391c8.784,0,17.337,0,26.091,0
		c-0.189-1.378-0.313-2.577-0.521-3.762C75.938,53,72.927,42.983,66.102,34.603c-1.342-1.647-3.549-2.784-5.576-3.632
		c-3.106-1.297-6.021-0.009-8.579,1.588c-0.766-2.289-1.331-4.51-2.247-6.574c-0.909-2.058-2.366-3.987,1.043-5.24
		c-1.199-1.48-2.188-2.702-3.162-3.905c-0.74,0.493-1.297,0.863-1.933,1.288c-0.632-1.004-1.03-2.08-1.789-2.736
		c-1.223-1.056-2.611-2.442-4.063-2.624c-6.399-0.809-11.933,1.071-15.839,6.479c-3.539,4.898-2.83,9.551,1.933,13.446
		c2.266-1.759,4.546-3.53,7.017-5.447c0.988,1.277,1.941,2.508,2.941,3.8c-2.354,1.878-4.537,3.62-6.83,5.45
		c2.448,2.715,4.73,5.265,7.034,7.795c2.181,2.394,3.628,2.694,6.631,1.359c0.826-0.368,1.6-0.862,2.797-1.518
		c-0.89,2.774-1.492,5.211-2.45,7.497c-1.397,3.328-1.236,6.268,1.371,8.917c0.263,0.265,0.565,0.619,0.596,0.955
		c0.047,0.592-0.099,1.199-0.164,1.802c-0.586-0.188-1.384-0.201-1.722-0.601c-0.879-1.041-1.491-2.302-2.34-3.371
		c-0.428-0.539-1.131-1.211-1.716-1.217c-4.57-0.045-9.146-0.047-13.71,0.159c-2.218,0.1-3.601,1.545-3.918,3.791
		c-0.3,2.132,0.566,3.791,2.501,4.662c0.924,0.417,2.069,0.462,3.117,0.475c6.63,0.082,13.264,0.024,19.89,0.206
		c1.875,0.051,2.664-0.657,3.352-2.255c2.952-6.84,5.991-13.645,9.102-20.413c0.357-0.779,1.374-1.255,2.083-1.872
		c0.059,0.924,0.443,1.991,0.116,2.754C58.84,52.055,55.959,58.43,53.128,64.825z M40.74,21.368
		c-0.474,0.024-0.981-0.626-1.844-1.247c0.925-0.558,1.481-1.162,1.953-1.103c0.468,0.061,0.847,0.793,1.266,1.23
		C41.657,20.649,41.215,21.345,40.74,21.368z" id="1713305632"></path>
		<circle display="inline" cx="17.259" cy="64.119" r="1.789" id="1544257767"></circle>
		<circle display="inline" cx="12.676" cy="64.119" r="1.789" id="1274482117"></circle>
		<circle display="inline" cx="8.094" cy="64.119" r="1.789" id="1824873295"></circle>
		<circle display="inline" cx="3.511" cy="64.119" r="1.789" id="1878094542"></circle>
		<circle display="inline" cx="16.988" cy="58.736" r="1.789" id="1680048187"></circle>
		<circle display="inline" cx="12.586" cy="57.463" r="1.789" id="1654837418"></circle>
		<circle display="inline" cx="8.184" cy="56.19" r="1.789" id="1326905980"></circle>
		<circle display="inline" cx="3.782" cy="54.917" r="1.789" id="1636374621"></circle>
		<circle display="inline" cx="20.819" cy="55.275" r="1.788" id="1966241132"></circle>
		<circle display="inline" cx="16.972" cy="52.786" r="1.788" id="1810764934"></circle>
		<circle display="inline" cx="13.125" cy="50.293" r="1.789" id="1874453157"></circle>
		<circle display="inline" cx="9.278" cy="47.804" r="1.788" id="1265308049"></circle>
		<circle display="inline" cx="5.488" cy="45.39" r="1.789" id="1959438140"></circle>
		<circle display="inline" cx="25.796" cy="51.617" r="1.788" id="1027312681"></circle>
		<circle display="inline" cx="22.674" cy="48.262" r="1.788" id="1404574674"></circle>
		<circle display="inline" cx="19.552" cy="44.908" r="1.789" id="1124890837"></circle>
		<circle display="inline" cx="16.43" cy="41.554" r="1.789" id="1600760526"></circle>
		<circle display="inline" cx="13.345" cy="38.287" r="1.789" id="1807808386"></circle>
	</g>
	<g fill="#0011a7" display="none" id="1698663276">
		<path display="inline" fill-rule="evenodd" clip-rule="evenodd" d="M50.455,16.771c0.551-2.039-0.35-5.079,2.956-5.023
		c3.128,0.053,2.3,2.932,2.813,5.229c1.63,0,3.313-0.02,4.993,0.004c4.185,0.059,6.564,2.397,6.568,6.511
		c0.014,13.502,0.012,27.004,0.001,40.506c-0.003,3.042-1.22,4.293-4.209,4.296c-15.687,0.013-31.373,0.012-47.061,0.001
		c-3.029-0.002-4.301-1.245-4.304-4.21c-0.012-13.502-0.015-27.003,0-40.505c0.004-4.153,2.371-6.517,6.523-6.601
		c0.702-0.014,1.41-0.063,2.106,0.005c2.129,0.208,3.655-0.076,3.434-2.863c-0.12-1.511,0.932-2.482,2.536-2.422
		c1.575,0.059,2.382,1.022,2.471,2.567c0.044,0.765,0.008,1.536,0.008,2.505C36.503,16.771,43.467,16.771,50.455,16.771z
		 M23.718,22.336c-1.608,0-3.327-0.139-4.999,0.08c-0.545,0.072-1.343,1.054-1.382,1.661c-0.159,2.487-0.055,4.99-0.079,7.488
		c-0.012,1.292,0.591,1.78,1.867,1.778c13.971-0.021,27.942-0.023,41.914,0.002c1.315,0.002,1.797-0.51,1.767-1.801
		c-0.06-2.497,0.052-4.999-0.076-7.49c-0.03-0.582-0.688-1.568-1.136-1.614c-1.809-0.185-3.649-0.077-5.492-0.077
		c-0.3,2.27,0.401,4.939-2.53,5.124c-3.525,0.223-2.542-2.976-3.103-4.968c-7.065,0-14.033,0-20.986,0
		c-0.416,2.03,0.499,4.737-2.504,4.969C23.268,27.775,24.723,24.331,23.718,22.336z M36.722,53.635
		c-1.81-1.77-3.436-3.326-5.022-4.922c-1.297-1.305-2.739-1.593-4.136-0.363c-1.51,1.33-1.014,2.863,0.153,4.119
		c2.229,2.397,4.528,4.73,6.861,7.025c1.233,1.213,2.703,1.287,3.967,0.089c4.638-4.396,9.241-8.827,13.802-13.304
		c1.065-1.046,1.185-2.396,0.104-3.548c-1.09-1.162-2.419-1.379-3.777-0.41c-0.503,0.359-0.92,0.84-1.372,1.269
		C43.803,46.91,40.306,50.231,36.722,53.635z" id="1541045067"></path>
	</g>
	<g fill="#0011a7" display="none" id="1902865454">
		<path display="inline" d="M45.951,28.32c-1.82-0.592-3.807-0.828-5.729-0.897c-1.997-0.073-3.255-0.836-3.583-2.783
		c-0.322-1.916,0.521-3.732,2.358-3.849c1.324-0.083,2.132-0.036,3.429,0.806c0.985,0.641,0.937,2.497,1.976,2.87
		c7.126,2.558,26.908,9.153,26.908,9.153s3.629-1.55,7.521-3.608c-1.488-0.658-2.513-1.1-3.528-1.562
		c-11.557-5.264-23.113-10.531-34.67-15.796c-0.376,0-0.752,0-1.13,0c-0.854,0.51-1.666,1.114-2.57,1.514
		c-6.581,2.911-13.181,5.78-19.775,8.662c-5.345,2.336-10.691,4.672-15.989,6.987c0.118,0.415,0.116,0.551,0.169,0.578
		c12.539,6.522,25.072,13.056,37.644,19.51c0.7,0.36,1.897,0.411,2.576,0.055c8.7-4.555,17.347-9.209,26.311-14.004
		c-0.853-0.357-1.415-0.63-2.002-0.833C59.234,32.835,52.621,30.49,45.951,28.32z" id="1692774788"></path>
		<path display="inline" d="M61.009,42.916c-4.464,2.357-9.219,4.3-13.304,7.191c-5.289,3.744-9.774,3.465-15.039-0.072
		c-4.418-2.968-9.501-4.946-14.541-7.489c0,2.967-0.135,5.514,0.072,8.029c0.078,0.938,0.733,2.176,1.509,2.654
		c6.773,4.174,13.634,8.206,20.574,12.344c6.572-4.06,13.179-8.118,19.748-12.232c0.646-0.405,1.481-1.148,1.518-1.776
		c0.164-2.853,0.071-5.723,0.071-8.487C61.185,42.96,61.068,42.885,61.009,42.916z" id="1470261150"></path>
		<polygon display="inline" points="71.486,33.544 67.868,35.957 67.868,47.115 71.486,47.115 	" id="1111725461">
		</polygon>
		<path display="inline" d="M70.777,55.114c-1.164-0.904-1.745-1.684-1.745-2.34l-0.1-1.156c0-0.688,0.296-1.032,0.891-1.032
		c0.507,0,0.761,0.178,0.761,0.535v3.285h4.719V51.32c0-1.602-1.045-2.597-3.136-2.986v-1.219h-0.681h-3.618h-0.389v1.219
		c-2.342,0.373-3.515,1.472-3.515,3.296v2.003c0,0.821,0.569,1.718,1.709,2.688c2.386,1.766,3.801,2.876,4.244,3.328
		c0.444,0.452,0.666,0.901,0.666,1.35v2.115c0,0.406-0.312,0.609-0.933,0.609c-0.646,0-0.965-0.203-0.965-0.609v-4.094h-4.722v4.068
		c0,1.577,1.173,2.589,3.515,3.035v1.221h4.688v-1.17c2.411-0.364,3.614-1.502,3.614-3.409v-2.277c0-0.696-0.246-1.325-0.74-1.89
		C74.549,58.034,73.125,56.872,70.777,55.114z" id="1745808422"></path>
	</g>
	<g fill="#0011a7" display="none" id="1923627285">
		<path display="inline" fill-rule="evenodd" clip-rule="evenodd"
			d="M41.182,62.728c-0.338,0-0.582,0-0.824,0
		c-5.97,0-11.939,0.002-17.91-0.002c-2.957-0.001-4.946-1.999-4.946-4.974c-0.002-18.008-0.002-26.103,0-44.111
		c0-2.948,2.013-4.947,4.978-4.948c7.548-0.002,15.097,0,22.646,0c0.241,0,0.482,0,0.795,0c0,0.333,0,0.597,0,0.861
		c0,4.292-0.002,8.584,0,12.876c0.002,3.241,1.964,5.208,5.2,5.21c3.503,0.003,7.007,0.001,10.51,0.001c0.265,0,0.528,0,0.87,0
		c0,0.331,0,0.595,0,0.859c0,13.05,0.001,16.187-0.001,29.236c-0.001,3.021-1.975,4.988-4.999,4.989
		c-1.454,0.004-2.907,0.002-4.463,0.002c0-1.602-0.012-3.17,0.015-4.736c0.004-0.186,0.199-0.384,0.339-0.548
		c2.258-2.662,2.636-6.365,0.951-9.389c-1.633-2.932-5.024-4.671-8.185-4.193c-3.692,0.555-6.442,3.028-7.151,6.521
		c-0.526,2.593,0.103,4.924,1.743,7.004c0.235,0.296,0.4,0.729,0.414,1.105C41.211,59.869,41.182,61.247,41.182,62.728z
		 M55.366,32.425c-10.282,0-20.503,0-30.705,0c0,0.802,0,1.551,0,2.284c10.263,0,20.467,0,30.705,0
		C55.366,33.939,55.366,33.208,55.366,32.425z M24.634,41.799c10.285,0,20.506,0,30.704,0c0-0.803,0-1.551,0-2.279
		c-10.264,0-20.468,0-30.704,0C24.634,40.29,24.634,41.021,24.634,41.799z M41.148,20.504c0-0.815,0-1.546,0-2.299
		c-5.522,0-11.006,0-16.495,0c0,0.793,0,1.541,0,2.299C30.171,20.504,35.637,20.504,41.148,20.504z M41.153,25.319
		c-5.543,0-11.027,0-16.492,0c0,0.802,0,1.55,0,2.283c5.526,0,10.993,0,16.492,0C41.153,26.833,41.153,26.103,41.153,25.319z" id="1276997222"></path>
		<path display="inline" fill-rule="evenodd" clip-rule="evenodd" d="M48.294,8.673c4.795,5.595,9.446,11.021,14.169,16.531
		c-0.271,0.027-0.449,0.061-0.628,0.061c-3.676,0.003-7.352,0.005-11.027,0c-1.524-0.001-2.511-0.971-2.512-2.477
		c-0.006-4.49-0.002-8.98-0.002-13.471C48.294,9.174,48.294,9.031,48.294,8.673z" id="1432628385"></path>
		<path display="inline" fill-rule="evenodd" clip-rule="evenodd" d="M47.129,57.989c-3.296,0.006-5.937-2.615-5.941-5.896
		c-0.004-3.302,2.61-5.938,5.895-5.941c3.302-0.004,5.938,2.61,5.942,5.894C53.03,55.347,50.412,57.984,47.129,57.989z"
			id="1071029811"></path>
		<path display="inline" fill-rule="evenodd" clip-rule="evenodd" d="M50.626,59.573c0,3.908,0,7.698,0,11.637
		c-1.172-1.248-2.256-2.401-3.353-3.568c-1.27,1.279-2.392,2.409-3.66,3.686c0-4.04,0-7.844,0-11.729
		C45.92,60.586,48.24,60.618,50.626,59.573z" id="1756229150"></path>
	</g>
</svg>