<svg id="Layer_1" data-name="Layer 1" xmlns="http://www.w3.org/2000/svg" viewBox="0 0 200 134"><defs><style>.cls-1{fill:#89866f;}.cls-2{fill:#7a7764;}.cls-3{fill:#fff;}</style></defs><title>check_d</title><path class="cls-1" d="M6.808,6.5H193.19223a.30811.30811,0,0,1,.30811.30811v120.3833a.30859.30859,0,0,1-.30859.30859H6.80746a.30762.30762,0,0,1-.30762-.30762V6.80811A.30811.30811,0,0,1,6.808,6.5Z"/><path class="cls-1" d="M246.66666,66V174h-174V66h174m6.19206-13H66.4746A6.828,6.828,0,0,0,59.66666,59.808V180.19206A6.828,6.828,0,0,0,66.4746,187H252.85872a6.82794,6.82794,0,0,0,6.80794-6.80794V59.808A6.828,6.828,0,0,0,252.85872,53Z" transform="translate(-59.66666 -53)"/><path class="cls-2" d="M119.81837,57.35523q-.46523-.20065-.94527-.36176c-3.24068-1.07793-8.77317-1.03415-9.933,3.02252L79.37232,155.43366l1.312,1.79449,1.62887,27.12426,2.11586.5117,15.01776-23.031.06372-.01615c-.61065-2.84727-3.771-5.765-8.13781-7.17392a14.24281,14.24281,0,0,0-7.95357-.40711c2.30035-1.51911,6.17457-1.825,10.12824-.54938,4.563,1.47154,7.80789,4.591,8.20356,7.55632l.0054-.00179s20.81661-87.41427,22.82207-95.895c.03433-.14273.06731-.2839.09985-.42216a5.32068,5.32068,0,0,0,.0045-2.494C124.12439,60.12147,122.05272,58.3162,119.81837,57.35523Z" transform="translate(-59.66666 -53)"/><path class="cls-3" d="M92.22412,108.31689v8.68262H87.49268V92.82764h8.40039a7.75278,7.75278,0,1,1,0,15.48925Zm0-3.76855h3.66895a2.66119,2.66119,0,0,0,2.30761-1.11475,4.74258,4.74258,0,0,0,.79688-2.82812,4.9302,4.9302,0,0,0-.78858-2.86963,2.63671,2.63671,0,0,0-2.31591-1.13965H92.22412Z" transform="translate(-59.66666 -53)"/><path class="cls-3" d="M119.56689,106.39111h-8.11816V113.231h9.5459v3.76855H106.71729V92.82764h14.24414v3.76855h-9.5127v6.02637h8.11816Z" transform="translate(-59.66666 -53)"/><path class="cls-3" d="M128.18311,107.38721v9.6123h-4.71485V92.84424H131.354a7.92766,7.92766,0,0,1,5.603,1.88428,6.78888,6.78888,0,0,1,2.03369,5.23779,6.08062,6.08062,0,0,1-.84668,3.26221,5.94078,5.94078,0,0,1-2.47363,2.1831,4.62949,4.62949,0,0,1,2.68115,2.0918,7.36873,7.36873,0,0,1,.82178,3.65234v1.71a10.656,10.656,0,0,0,.23242,2.1333,2.91968,2.91968,0,0,0,.81348,1.65186v.34863h-4.88086a2.72239,2.72239,0,0,1-.73047-1.72656,19.65909,19.65909,0,0,1-.14941-2.44043V111.189a4.639,4.639,0,0,0-.73877-2.80566,2.47674,2.47674,0,0,0-2.1167-.99609Zm0-3.76856h3.15429a2.71339,2.71339,0,0,0,2.19141-.87988,3.76479,3.76479,0,0,0,.74707-2.50684,4.24923,4.24923,0,0,0-.74707-2.63964,2.56856,2.56856,0,0,0-2.17481-.9795h-3.17089Z" transform="translate(-59.66666 -53)"/><path class="cls-3" d="M153.48389,110.69092a3.24132,3.24132,0,0,0-.73047-2.23291,7.442,7.442,0,0,0-2.57324-1.61865,16.999,16.999,0,0,1-5.65284-2.98,5.91487,5.91487,0,0,1-1.88427-4.67334,6.0618,6.0618,0,0,1,2.1914-4.83936A8.32276,8.32276,0,0,1,150.4292,92.479a7.74312,7.74312,0,0,1,5.61133,2.0835,6.78678,6.78678,0,0,1,2.09179,5.25439l-.0332.09961h-4.582a4.15437,4.15437,0,0,0-.83008-2.68945,3.21435,3.21435,0,0,0-4.54053-.17432,3.04872,3.04872,0,0,0-.78857,2.14991,2.50009,2.50009,0,0,0,.87988,1.96728,12.3912,12.3912,0,0,0,3.05469,1.71826,12.8639,12.8639,0,0,1,5.17139,2.94678,6.62509,6.62509,0,0,1,1.73486,4.82275,6.101,6.101,0,0,1-2.0918,4.91407,8.30137,8.30137,0,0,1-5.56152,1.77636,9.31371,9.31371,0,0,1-5.98486-2.01709,6.75742,6.75742,0,0,1-2.44873-5.78564l.0332-.09961h4.59863a4.53458,4.53458,0,0,0,.94629,3.2207,3.79859,3.79859,0,0,0,2.85547.9795,2.846,2.846,0,0,0,2.21631-.79688A3.0926,3.0926,0,0,0,153.48389,110.69092Z" transform="translate(-59.66666 -53)"/><path class="cls-3" d="M177.44043,108.31689a9.16546,9.16546,0,0,1-2.30762,6.64063,9.0655,9.0655,0,0,1-12.26855,0,9.20428,9.20428,0,0,1-2.29151-6.64063v-6.77343a9.2706,9.2706,0,0,1,2.29151-6.64893,8.0243,8.0243,0,0,1,6.10937-2.41553,8.13458,8.13458,0,0,1,6.14258,2.41553,9.19308,9.19308,0,0,1,2.32422,6.64893Zm-4.69824-6.8247a6.63848,6.63848,0,0,0-.96289-3.9209,3.2539,3.2539,0,0,0-2.80567-1.32373,3.18862,3.18862,0,0,0-2.78906,1.31543,6.81048,6.81048,0,0,0-.92969,3.9292v6.82617a6.75567,6.75567,0,0,0,.94629,3.94629,3.61536,3.61536,0,0,0,5.57813,0,6.66767,6.66767,0,0,0,.96289-3.94629Z" transform="translate(-59.66666 -53)"/><path class="cls-3" d="M197.42871,116.99951h-4.69824l-7.3877-15.45605-.09961.0332v15.42285h-4.73144V92.82764h4.73144l7.3877,15.43945.09961-.0332V92.82764h4.69824Z" transform="translate(-59.66666 -53)"/><path class="cls-3" d="M212.28711,111.83643h-6.375l-1.29492,5.16308h-4.76465l6.80664-24.17187h4.91406l6.79,24.17187h-4.76465Zm-5.41211-3.76856h4.44922l-2.17481-8.5498h-.09961Z" transform="translate(-59.66666 -53)"/><path class="cls-3" d="M224.9707,113.231h8.832v3.76855H220.23926V92.82764h4.73144Z" transform="translate(-59.66666 -53)"/><path class="cls-3" d="M130.81445,143.21289l.04981.09961q.033,3.98438-1.89258,6.00977a7.46877,7.46877,0,0,1-5.67773,2.02539,7.98444,7.98444,0,0,1-5.99317-2.29883,8.949,8.949,0,0,1-2.24121-6.51563v-7.22265a9.17457,9.17457,0,0,1,2.1665-6.51563,7.56608,7.56608,0,0,1,5.80225-2.3164,7.68791,7.68791,0,0,1,5.81885,2.05859q1.96728,2.05957,2.03369,6.09375l-.04981.09961h-4.54882a5.64562,5.64562,0,0,0-.64746-3.43359,2.98433,2.98433,0,0,0-2.60645-1.04883,2.76971,2.76971,0,0,0-2.44043,1.24609,6.76688,6.76688,0,0,0-.84668,3.77148v7.26172a6.49683,6.49683,0,0,0,.90479,3.80664,3.06776,3.06776,0,0,0,2.64795,1.2461,2.67579,2.67579,0,0,0,2.38232-.98828,5.90392,5.90392,0,0,0,.58935-3.37891Z" transform="translate(-59.66666 -53)"/><path class="cls-3" d="M150.66992,151h-4.71484V140.98828h-7.50391V151h-4.73144V126.82812h4.73144V137.2207h7.50391V126.82812h4.71484Z" transform="translate(-59.66666 -53)"/><path class="cls-3" d="M167.17188,140.39062h-8.11817v6.83985h9.5459V151H154.32227V126.82812h14.24414v3.76758h-9.5127v6.02735h8.11817Z" transform="translate(-59.66666 -53)"/><path class="cls-3" d="M186.21387,143.21289l.0498.09961q.03369,3.98438-1.89258,6.00977a7.46876,7.46876,0,0,1-5.67773,2.02539,7.98517,7.98517,0,0,1-5.99316-2.29883,8.949,8.949,0,0,1-2.24122-6.51563v-7.22265a9.17471,9.17471,0,0,1,2.167-6.51563,7.565,7.565,0,0,1,5.80175-2.3164,7.68906,7.68906,0,0,1,5.81934,2.05859q1.96728,2.05957,2.0332,6.09375l-.0498.09961h-4.54883a5.64547,5.64547,0,0,0-.64746-3.43359,2.98433,2.98433,0,0,0-2.60645-1.04883,2.76972,2.76972,0,0,0-2.44043,1.24609,6.76688,6.76688,0,0,0-.84668,3.77148v7.26172a6.49656,6.49656,0,0,0,.90528,3.80664,3.06628,3.06628,0,0,0,2.64746,1.2461,2.67674,2.67674,0,0,0,2.38281-.98828,5.90055,5.90055,0,0,0,.58887-3.37891Z" transform="translate(-59.66666 -53)"/><path class="cls-3" d="M195.90918,140.95508h-2.05859V151h-4.73145V126.82812h4.73145v9.82813h1.52734l4.71484-9.82813h5.79395l-6.59082,11.03907L206.43457,151h-5.74414Z" transform="translate(-59.66666 -53)"/></svg>