<svg xmlns:xlink="http://www.w3.org/1999/xlink" id="Layer_1" data-name="Layer 1" xmlns="http://www.w3.org/2000/svg" viewBox="0 0 82.5 59.64" width="150"  height="108" > <defs> <style>.cls-1{fill:#fff;opacity:0.9;}.cls-2{fill:#35434c;}</style> 
</defs> 
 <title>play-icon2</title> 
 <path class="cls-1" d="M41.24,59.64a306.42,306.42,0,0,1-36.6-2.21,1.79,1.79,0,0,1-1.5-1.36,111.84,111.84,0,0,1,0-52.51A1.79,1.79,0,0,1,4.64,2.2a305.66,305.66,0,0,1,73.19,0,1.79,1.79,0,0,1,1.53,1.36,111.84,111.84,0,0,1,0,52.51,1.79,1.79,0,0,1-1.53,1.36,306.42,306.42,0,0,1-36.6,2.21Z" fill="#FFFFFF"></path> 
 <path class="cls-2" d="M34.41,44.07A3,3,0,0,1,31.47,41q0-.1,0-.19v-22c0-3.08,2.71-4,4.78-2.71l19,11a3,3,0,0,1,0,5.5l-19,11a3.68,3.68,0,0,1-1.81.53Z" fill="#35434C"></path> 
</svg>