<svg version="1.1" id="1115978378" xmlns="http://www.w3.org/2000/svg" xmlns:xlink="http://www.w3.org/1999/xlink" x="0px" y="0px" width="80px" height="80px" viewBox="0 0 80 80" enable-background="new 0 0 80 80" xml:space="preserve" class="svg u_1115978378" data-icon-custom="true" data-icon-name="i1.svg"> <g fill="#0011a7" id="1214374523"> <path fill="none" d="M51.218,30.337c1.351,0,2.444-1.094,2.444-2.444c0-0.347-0.074-0.676-0.204-0.975h2.972
		c-0.13,0.299-0.205,0.628-0.205,0.975c0,1.351,1.094,2.444,2.444,2.444s2.444-1.094,2.444-2.444c0-1.35-1.094-2.444-2.444-2.444
		c-0.694,0-1.317,0.293-1.762,0.758H52.98c-0.444-0.465-1.067-0.758-1.763-0.758c-1.35,0-2.443,1.095-2.443,2.444
		C48.774,29.243,49.868,30.337,51.218,30.337z" id="1016842774"></path> 
 <path d="M11.063,61.308c-0.415-0.345-0.891-0.564-1.418-0.674c-0.067-0.015-0.121-0.007-0.18,0.036
		c-0.286,0.212-0.604,0.354-0.948,0.438c-0.342,0.085-0.692,0.099-1.041,0.073c-0.212-0.016-0.425-0.055-0.631-0.105
		c-0.319-0.078-0.607-0.229-0.874-0.423c-0.024-0.019-0.066-0.027-0.097-0.023c-0.41,0.068-0.791,0.219-1.142,0.441
		c-0.374,0.233-0.687,0.534-0.935,0.897c-0.31,0.454-0.494,0.955-0.546,1.505c-0.008,0.081-0.011,0.165-0.017,0.251
		c0.349-0.032,0.668,0.037,0.953,0.188l7.074,0.008c0.309-0.162,0.625-0.227,0.968-0.196c0-0.031,0.001-0.061,0-0.089
		c-0.02-0.348-0.087-0.687-0.214-1.011C11.81,62.102,11.492,61.664,11.063,61.308z" id="1476856316"></path> 
 <path d="M22.857,61.308c-0.415-0.345-0.891-0.564-1.418-0.674c-0.067-0.015-0.121-0.007-0.18,0.036
		c-0.286,0.212-0.604,0.354-0.948,0.438c-0.342,0.085-0.692,0.099-1.041,0.073c-0.212-0.016-0.425-0.055-0.631-0.105
		c-0.319-0.078-0.607-0.229-0.874-0.423c-0.024-0.019-0.066-0.027-0.097-0.023c-0.41,0.068-0.791,0.219-1.142,0.441
		c-0.374,0.233-0.687,0.534-0.935,0.897c-0.31,0.454-0.494,0.955-0.546,1.505c-0.008,0.081-0.011,0.165-0.017,0.251
		c0.349-0.032,0.668,0.037,0.953,0.188l7.074,0.008c0.309-0.162,0.625-0.227,0.968-0.196c0-0.031,0.001-0.061,0-0.089
		c-0.02-0.348-0.087-0.687-0.214-1.011C23.604,62.102,23.286,61.664,22.857,61.308z" id="1390907077"></path> 
 <path d="M34.601,61.308c-0.415-0.345-0.891-0.564-1.418-0.674c-0.067-0.015-0.122-0.007-0.18,0.036
		c-0.286,0.212-0.606,0.354-0.949,0.438c-0.342,0.085-0.691,0.099-1.04,0.073c-0.212-0.016-0.425-0.055-0.632-0.105
		c-0.319-0.078-0.607-0.229-0.874-0.423c-0.024-0.019-0.066-0.027-0.097-0.023c-0.41,0.068-0.791,0.219-1.142,0.441
		c-0.374,0.233-0.687,0.534-0.935,0.897c-0.31,0.454-0.494,0.955-0.546,1.505c-0.008,0.081-0.011,0.165-0.017,0.251
		c0.349-0.032,0.667,0.037,0.953,0.188l7.074,0.008c0.308-0.162,0.625-0.227,0.967-0.196c0-0.031,0.001-0.061,0-0.089
		c-0.02-0.348-0.087-0.687-0.214-1.011C35.347,62.102,35.029,61.664,34.601,61.308z" id="1128169773"></path> 
 <circle cx="7.731" cy="32.351" r="4.575" id="1501321571"></circle> 
 <circle cx="7.731" cy="44.066" r="4.575" id="1355490623"></circle> 
 <circle cx="7.731" cy="55.781" r="4.575" id="1619178506"></circle> 
 <circle cx="31.268" cy="32.351" r="4.575" id="1996591634"></circle> 
 <circle cx="31.268" cy="44.066" r="4.575" id="1926755221"></circle> 
 <circle cx="31.268" cy="55.781" r="4.575" id="1781676160"></circle> 
 <circle cx="19.525" cy="32.351" r="4.575" id="1985129164"></circle> 
 <circle cx="19.525" cy="44.066" r="4.575" id="1672908288"></circle> 
 <circle cx="19.525" cy="55.781" r="4.575" id="1023994867"></circle> 
 <circle cx="7.731" cy="20.622" r="4.575" id="1137421145"></circle> 
 <circle cx="31.268" cy="20.622" r="4.575" id="1658614827"></circle> 
 <circle cx="19.525" cy="20.622" r="4.575" id="1905423784"></circle> 
 <path d="M59.788,49.687c0.902-0.085,1.805-0.169,2.706-0.256c0.954-0.093,1.91-0.189,2.864-0.286L66.798,49l0.095-0.007h0.05h0.001
		c0.885,0,1.634,0.729,1.67,1.628c0.022,0.53,0.021,1.017,0.012,1.49h0.097c0.388-0.202,0.782-0.352,1.18-0.477
		c0.095-2.436,0.191-4.87,0.291-7.306c-0.632-0.888-1.376-1.692-2.239-2.409c-1.62-1.346-3.478-2.205-5.54-2.631
		c-0.261-0.055-0.473-0.029-0.703,0.141c-1.113,0.822-2.358,1.378-3.701,1.71c-1.334,0.33-2.7,0.384-4.062,0.282
		c-0.827-0.062-1.658-0.212-2.466-0.411c-1.245-0.308-2.372-0.894-3.411-1.651c-0.097-0.071-0.258-0.109-0.377-0.089
		c-1.604,0.266-3.087,0.855-4.461,1.719c-1.461,0.916-2.68,2.089-3.65,3.507c-1.211,1.771-1.928,3.73-2.132,5.872
		c-0.028,0.295-0.041,0.592-0.061,0.896c0.383-0.09,0.729-0.092,0.903-0.092h0.004c1.178,0,2.257,0.34,3.167,0.911l0.707,0.001
		c-0.002-0.261-0.006-0.521-0.004-0.782l0.001-0.454c0.003-0.881,0.471-1.337,0.742-1.527c0.171-0.119,0.524-0.321,0.973-0.321
		L43.962,49l0.051,0.004c1.817,0.172,3.632,0.353,5.446,0.533c0.636,0.063,1.272,0.127,1.908,0.192
		c0.641,0.064,1.282,0.131,1.932,0.194c0.069,0.008,0.139,0.01,0.209,0.014c0.126,0.007,0.253,0.014,0.38,0.029
		c0.731,0.091,1.23,0.459,1.498,1.016c0.147-0.331,0.376-0.598,0.705-0.779c0.362-0.2,0.736-0.236,0.984-0.26
		C57.979,49.856,58.884,49.771,59.788,49.687z" id="1597726802"></path> 
 <path d="M50.29,37.575c1.42,1.012,2.996,1.579,4.755,1.555c1.479-0.019,2.842-0.457,4.083-1.249
		c2.277-1.451,3.771-3.521,4.642-6.05c0.6-1.746,0.76-3.538,0.367-5.354c-0.418-1.926-1.345-3.575-2.803-4.912
		c-2.183-2.003-4.765-2.795-7.686-2.432c-1.745,0.217-3.307,0.915-4.663,2.047c-2.271,1.897-3.39,4.343-3.45,7.019
		c0.02,1.739,0.329,3.144,0.907,4.495C47.287,34.668,48.535,36.323,50.29,37.575z M51.218,25.448c0.695,0,1.318,0.293,1.763,0.758
		h3.927c0.444-0.465,1.067-0.758,1.762-0.758c1.351,0,2.444,1.095,2.444,2.444c0,1.351-1.094,2.444-2.444,2.444
		s-2.444-1.094-2.444-2.444c0-0.347,0.075-0.676,0.205-0.975h-2.972c0.13,0.299,0.204,0.628,0.204,0.975
		c0,1.351-1.094,2.444-2.444,2.444c-1.35,0-2.443-1.094-2.443-2.444C48.774,26.543,49.868,25.448,51.218,25.448z" id="1095141743"></path> 
 <path d="M74.535,53.086c-0.355-0.21-0.386-0.423-0.356-0.768c0.164-1.847,0.312-3.694,0.462-5.541
		c0.144-1.808,0.278-3.615,0.422-5.422c0.128-1.591,0.267-3.182,0.396-4.773c0.131-1.6,0.257-3.2,0.385-4.8
		c0.131-1.616,0.264-3.233,0.395-4.849c0.03-0.373-0.053-0.72-0.239-1.05c-0.285-0.504-0.838-0.835-1.42-0.858
		c-0.085-0.004-0.17,0-0.254,0.01c-0.714,0.084-1.351,0.582-1.479,1.248c-0.109,0.565-0.146,1.147-0.193,1.723
		c-0.171,2.096-0.33,4.19-0.499,6.285c-0.247,3.051-0.501,6.102-0.748,9.153c-0.241,2.986-0.478,5.971-0.712,8.957
		c-0.012,0.142-0.075,0.19-0.194,0.24c-0.351,0.15-0.716,0.282-1.03,0.486c-1.948,1.271-2.697,3.651-1.845,5.804
		c0.711,1.797,2.412,2.919,4.234,2.991c0.639,0.025,1.293-0.078,1.925-0.329c1.294-0.496,2.197-1.406,2.713-2.677
		C77.374,56.75,76.545,54.271,74.535,53.086z" id="1372266896"></path> 
 <path d="M53.757,51.031c-0.188-0.022-0.381-0.021-0.57-0.041c-1.278-0.125-2.555-0.26-3.832-0.385
		c-1.814-0.182-3.627-0.361-5.442-0.532c-0.01-0.001-0.019-0.001-0.029-0.001c-0.118,0-0.255,0.056-0.354,0.125
		c-0.22,0.153-0.288,0.395-0.289,0.655c0,0.555-0.01,1.111,0.007,1.667c0.004,0.134,0.06,0.291,0.142,0.397
		c1.269,1.633,1.726,3.454,1.304,5.485c-0.206,0.989-0.64,1.872-1.266,2.666c-0.079,0.098-0.168,0.22-0.177,0.337
		c-0.024,0.306-0.021,0.615-0.001,0.921c0.026,0.427,0.281,0.656,0.706,0.678c0.248,0.013,0.495,0.038,0.743,0.063
		c1.285,0.127,2.57,0.257,3.855,0.384c0.816,0.082,1.635,0.158,2.451,0.237c0.932,0.088,1.862,0.181,2.795,0.262
		c0.031,0.002,0.061,0.004,0.09,0.004c0.325,0,0.513-0.163,0.599-0.5c0.035-0.143,0.049-0.295,0.049-0.442
		c0.004-1.834,0.002-3.666,0.002-5.501c0-0.738,0-1.477,0-2.214c0-1.12,0-2.241,0-3.36C54.538,51.358,54.318,51.101,53.757,51.031z" id="1314179723"></path> 
 <path d="M67.227,53.17c0.117-0.156,0.301-0.324,0.31-0.492c0.036-0.67,0.033-1.343,0.006-2.014
		c-0.014-0.338-0.314-0.599-0.599-0.599c-0.015,0-0.028,0.001-0.043,0.002c-1.435,0.144-2.868,0.292-4.303,0.431
		c-1.806,0.174-3.613,0.339-5.419,0.513c-0.194,0.019-0.405,0.041-0.57,0.132c-0.292,0.162-0.337,0.468-0.336,0.779
		c0.002,1.857,0,3.716,0,5.573c-0.001,0-0.001,0-0.003,0c0,1.818-0.002,3.635,0.002,5.451c0,0.15,0.001,0.301,0.024,0.447
		c0.057,0.347,0.297,0.559,0.632,0.559c0.019,0,0.039-0.001,0.059-0.002c0.488-0.036,0.974-0.083,1.461-0.129
		c0.939-0.09,1.88-0.181,2.82-0.271c0.923-0.089,1.847-0.178,2.771-0.269c0.939-0.091,1.878-0.192,2.816-0.275
		c0.403-0.035,0.663-0.257,0.696-0.664c0.021-0.238-0.002-0.481,0.018-0.722c0.016-0.221-0.056-0.389-0.195-0.562
		C65.533,58.781,65.477,55.496,67.227,53.17z" id="1437176123"></path> 
 <path d="M38.427,52.448c-0.001,0-0.003,0-0.004,0c-2.613,0.003-0.907,2.146-0.908,4.776c0,2.629-3.153,3.335,1.048,4.353
		c4.315-0.059,4.701-1.77,4.667-4.353C43.227,54.55,41.11,52.448,38.427,52.448z" id="1466444938"></path> 
</g> 
 <g fill="#0011a7" display="none" id="1208906604"> <path display="inline" fill-rule="evenodd" clip-rule="evenodd" d="M58.354,66.329c-2.127-0.196-4.065,0.358-5.633,1.776
		c-0.914,0.827-1.599,1.92-2.329,2.937c-1.039,1.443-2.433,2.026-4.146,1.719c-0.66-0.118-1.266-0.526-1.902-0.784
		c-1.038-0.417-2.053-0.933-3.127-1.202c-1.569-0.393-3.087-0.045-4.542,0.663c-1.049,0.51-2.108,1.105-3.23,1.34
		c-1.487,0.311-2.759-0.345-3.679-1.579c-0.398-0.533-0.759-1.094-1.14-1.642c-1.486-2.134-3.544-3.185-6.131-3.225
		c-0.641-0.011-1.283,0.006-1.924-0.003c-2.111-0.025-3.735-1.529-3.951-3.645c-0.209-2.051-0.487-4.055-1.925-5.718
		c-1.049-1.216-2.451-1.828-3.803-2.544c-1.217-0.645-2.019-1.627-2.174-2.979c-0.084-0.729,0.087-1.516,0.268-2.245
		c0.3-1.21,0.848-2.373,1.024-3.595c0.252-1.748-0.234-3.385-1.253-4.871c-0.63-0.92-1.286-1.875-1.654-2.912
		c-0.493-1.387,0.001-2.674,1.016-3.727c0.391-0.405,0.82-0.777,1.255-1.136c2.378-1.957,3.221-4.462,2.724-7.471
		c-0.108-0.654-0.217-1.33-0.169-1.984c0.128-1.762,1.338-3.138,3.082-3.612c0.642-0.174,1.293-0.312,1.937-0.479
		c2.4-0.624,4.048-2.108,4.981-4.394c0.261-0.64,0.482-1.295,0.738-1.937c0.74-1.856,2.549-2.859,4.508-2.481
		c0.979,0.189,1.938,0.496,2.922,0.631c2.171,0.298,4.104-0.292,5.76-1.747c0.462-0.406,0.92-0.818,1.384-1.223
		c1.716-1.497,3.869-1.486,5.57,0.019c0.653,0.578,1.267,1.216,1.981,1.707c1.923,1.319,4.03,1.642,6.298,1.034
		c1.101-0.293,2.192-0.735,3.386-0.421c1.295,0.34,2.262,1.061,2.797,2.301c0.274,0.634,0.501,1.288,0.75,1.932
		c0.935,2.417,2.638,3.973,5.163,4.609c0.694,0.174,1.394,0.332,2.079,0.54c1.896,0.577,2.998,2.342,2.81,4.318
		c-0.148,1.543-0.551,3.083-0.066,4.649c0.425,1.376,1.041,2.61,2.153,3.562c0.526,0.45,1.041,0.915,1.552,1.382
		c1.538,1.408,1.815,3.48,0.69,5.226c-0.374,0.583-0.777,1.146-1.165,1.718c-1.429,2.107-1.653,4.354-0.787,6.729
		c0.229,0.625,0.461,1.248,0.685,1.874c0.678,1.895-0.069,3.892-1.827,4.877c-0.491,0.275-0.991,0.537-1.496,0.787
		c-2.653,1.311-3.999,3.484-4.249,6.393c-0.047,0.536-0.095,1.074-0.19,1.603c-0.332,1.837-1.987,3.21-3.865,3.228
		C59.123,66.333,58.738,66.329,58.354,66.329z M40.056,13.762C25.399,13.838,13.688,25.589,13.769,40.14
		c0.08,14.494,11.972,26.257,26.396,26.113c14.462-0.146,26.14-11.862,26.097-26.185C66.218,25.507,54.443,13.688,40.056,13.762z" id="1583516274"></path> 
 <path display="inline" fill-rule="evenodd" clip-rule="evenodd" d="M17.013,40.001c-0.139-12.5,10.139-22.85,22.833-22.995
		c12.67-0.145,23.059,10.12,23.169,22.891c0.109,12.705-10.201,23.054-23.028,23.111C27.362,63.065,17.155,52.845,17.013,40.001z
		 M36.758,45.465c-0.299-0.396-0.432-0.621-0.609-0.799c-2.279-2.289-4.568-4.569-6.848-6.857c-0.905-0.908-1.979-1.28-3.222-0.956
		c-2.549,0.666-3.292,3.672-1.38,5.599c3.16,3.185,6.338,6.351,9.515,9.52c1.563,1.56,3.455,1.561,5.015,0.009
		c1.962-1.954,3.917-3.915,5.875-5.873c3.409-3.408,6.819-6.813,10.224-10.226c1.21-1.214,1.427-2.882,0.569-4.2
		c-1.206-1.855-3.564-2.042-5.218-0.394c-4.447,4.436-8.888,8.879-13.323,13.326C37.158,44.812,37.027,45.076,36.758,45.465z" id="1508737464"></path> 
</g> 
</svg>