<svg id="Layer_1" data-name="Layer 1" xmlns="http://www.w3.org/2000/svg" viewBox="0 0 200 134"><defs><style>.cls-1{fill:#202a93;}.cls-2{fill:#fff;}.cls-3{fill:#f9a533;}</style></defs><title>visa_d</title><rect class="cls-1" x="6.5" y="6.5" width="187" height="121" rx="0.31" ry="0.31"/><path class="cls-1" d="M273.59,165.48v108h-174v-108h174m6.19-13H93.4a6.83,6.83,0,0,0-6.81,6.81V279.67a6.83,6.83,0,0,0,6.81,6.81H279.78a6.83,6.83,0,0,0,6.81-6.81V159.29a6.83,6.83,0,0,0-6.81-6.81Z" transform="translate(-86.59 -152.48)"/><polygon class="cls-2" points="92.18 86.76 82.59 86.76 88.59 49.92 98.18 49.92 92.18 86.76"/><path class="cls-2" d="M161.11,202.4,152,227.74l-1.08-5.46h0l-3.23-16.57s-.39-3.32-4.55-3.32H128l-.17.62a35.8,35.8,0,0,1,10,4.21l8.33,32h10l15.26-36.84Z" transform="translate(-86.59 -152.48)"/><path class="cls-2" d="M236.56,239.24h8.81l-7.68-36.84H230a4.41,4.41,0,0,0-4.43,2.74l-14.3,34.1h10l2-5.47h12.2Zm-10.55-13,5-13.79,2.84,13.79Z" transform="translate(-86.59 -152.48)"/><path class="cls-2" d="M212,211.26l1.37-7.91a27.69,27.69,0,0,0-8.62-1.61c-4.76,0-16.06,2.08-16.06,12.2,0,9.52,13.27,9.64,13.27,14.63s-11.9,4.11-15.83,1l-1.43,8.27a26.86,26.86,0,0,0,10.83,2.08c6.55,0,16.42-3.39,16.42-12.61,0-9.58-13.39-10.47-13.39-14.64S207.89,209,212,211.26Z" transform="translate(-86.59 -152.48)"/><path class="cls-3" d="M152.89,222.29l-3.23-16.57s-.39-3.32-4.55-3.32H130l-.17.62a37.16,37.16,0,0,1,14.23,7.15A28.74,28.74,0,0,1,152.89,222.29Z" transform="translate(-86.59 -152.48)"/></svg>